#!OML:ASF H:\Not Pregnant\Project 1\Capture day 1\Session 1\non-pregnant.ASF
:FULLY-SPECIFIED
:DEGREES
412
root 9.80902 14.1446 33.9396 -355.003 -131.619 -356.25
lowerback 9.48781 3.20466 7.17096
upperback -3.68501 5.24553 0.513216
thorax -8.68375 2.13773 -4.32398
lowerneck 18.6192 -6.47017 -31.0818
upperneck 0.202126 -18.6198 41.4398
head 4.55768 -12.2022 22.2706
rclavicle -3.77194e-014 -1.39149e-014
rhumerus -39.4617 7.54671 -88.0389
rradius 62.0618
rwrist 5.01851
rhand -13.9746 -10.4889
rfingers 7.12502
rthumb 12.1536 -40.1159
lclavicle -3.77194e-014 -1.39149e-014
lhumerus -45.1731 9.11683 81.0821
lradius 106.261
lwrist 44.3839
lhand -28.8719 -34.883
lfingers 7.12502
lthumb -2.22799 -4.91487
rfemur -17.2239 -6.09351 14.3353
rtibia 51.057
rfoot -41.2857 -5.43023
rtoes -30.02
lfemur -32.8979 -5.32995 7.52932
ltibia 38.8646
lfoot -21.0509 1.13136
ltoes -42.618
413
root 9.6909 14.1291 34.0248 -355.386 -131.517 -355.555
lowerback 9.22862 2.86131 7.73865
upperback -3.82684 4.84525 0.650724
thorax -8.70844 1.90639 -4.41967
lowerneck 18.9402 -6.51888 -30.9561
upperneck 0.534254 -18.9649 41.3674
head 4.71137 -12.4232 22.1709
rclavicle -3.36195e-014 -1.55052e-014
rhumerus -39.3435 3.8069 -86.3916
rradius 57.9357
rwrist 6.98315
rhand -14.8285 -12.3986
rfingers 7.12502
rthumb 11.3301 -42.0726
lclavicle -3.36195e-014 -1.55052e-014
lhumerus -45.6397 8.48343 81.6397
lradius 103.108
lwrist 45.5209
lhand -29.8441 -34.0929
lfingers 7.12502
lthumb -3.16688 -4.1367
rfemur -17.0069 -5.77535 14.309
rtibia 50.63
rfoot -41.0751 -5.91652
rtoes -30.4594
lfemur -33.4443 -4.57567 7.4652
ltibia 39.7449
lfoot -22.2978 0.416758
ltoes -42.3419
414
root 9.56823 14.1212 34.1143 -355.782 -131.41 -354.733
lowerback 8.94674 2.52731 8.47476
upperback -4.00362 4.47352 0.802778
thorax -8.75171 1.67543 -4.59847
lowerneck 19.295 -6.57104 -30.8596
upperneck 0.714059 -19.2825 41.3256
head 4.81364 -12.6334 22.101
rclavicle 6.70898e-015 -1.59028e-015
rhumerus -39.5063 -0.310198 -84.3605
rradius 53.9957
rwrist 8.85481
rhand -15.5209 -14.3895
rfingers 7.12502
rthumb 10.6623 -44.099
lclavicle 6.70898e-015 -1.59028e-015
lhumerus -45.9694 7.65974 82.2265
lradius 99.8047
lwrist 46.8562
lhand -30.918 -32.9734
lfingers 7.12502
lthumb -4.20398 -3.03516
rfemur -16.784 -5.35788 14.387
rtibia 50.0078
rfoot -40.7268 -6.46797
rtoes -30.8488
lfemur -34.2974 -3.61166 7.36244
ltibia 41.0992
lfoot -23.3255 -0.433413
ltoes -41.6428
415
root 9.43966 14.1224 34.2078 -356.058 -131.348 -353.955
lowerback 8.62451 2.22615 9.27521
upperback -4.20265 4.14328 0.94033
thorax -8.79393 1.45762 -4.8338
lowerneck 19.6505 -6.63976 -30.7841
upperneck 0.748015 -19.5738 41.3003
head 4.86936 -12.8267 22.0409
rclavicle 2.12948e-014 -1.86858e-014
rhumerus -40.0304 -4.69112 -81.8851
rradius 50.3582
rwrist 10.5134
rhand -16.0806 -16.3779
rfingers 7.12502
rthumb 10.1224 -46.1144
lclavicle 2.12948e-014 -1.86858e-014
lhumerus -46.1893 6.67086 82.8679
lradius 96.4616
lwrist 48.2797
lhand -32.0372 -31.4645
lfingers 7.12502
lthumb -5.28461 -1.55035
rfemur -16.5704 -4.86136 14.4249
rtibia 49.1987
rfoot -40.2548 -7.03118
rtoes -31.1592
lfemur -35.3257 -2.57859 7.1493
ltibia 42.5782
lfoot -24.0077 -1.31388
ltoes -40.9136
416
root 9.30465 14.1328 34.3008 -356.152 -131.282 -353.396
lowerback 8.27302 1.92332 9.96203
upperback -4.38309 3.787 1.08236
thorax -8.81726 1.23438 -4.99682
lowerneck 19.916 -6.72396 -30.7934
upperneck 0.684439 -19.8299 41.2672
head 4.91069 -12.9872 21.9835
rclavicle 2.39287e-014 -3.49861e-014
rhumerus -40.9681 -9.03073 -78.9509
rradius 47.1394
rwrist 11.7171
rhand -16.4371 -18.3656
rfingers 7.12502
rthumb 9.77845 -48.1185
lclavicle 2.39287e-014 -3.49861e-014
lhumerus -46.3417 5.64277 83.6009
lradius 93.2019
lwrist 49.6521
lhand -33.2054 -29.6576
lfingers 7.12502
lthumb -6.41253 0.225281
rfemur -16.2564 -4.3461 14.2996
rtibia 48.2071
rfoot -39.6972 -7.59845
rtoes -31.3533
lfemur -36.3357 -1.65673 6.75072
ltibia 43.8802
lfoot -24.3812 -2.0738
ltoes -40.9296
417
root 9.16233 14.155 34.3932 -355.965 -131.251 -353.186
lowerback 7.88647 1.64828 10.4593
upperback -4.55256 3.43401 1.18757
thorax -8.81998 1.02453 -5.09449
lowerneck 20.1217 -6.829 -30.8356
upperneck 0.511916 -20.0535 41.2321
head 4.92293 -13.1188 21.9204
rclavicle 7.56624e-014 1.59028e-014
rhumerus -42.3958 -13.1412 -75.5906
rradius 44.4366
rwrist 12.2074
rhand -16.619 -20.3962
rfingers 7.12502
rthumb 9.60296 -50.1573
lclavicle 7.56624e-014 1.59028e-014
lhumerus -46.4865 4.53397 84.4538
lradius 90.1482
lwrist 50.8707
lhand -34.4266 -27.7006
lfingers 7.12502
lthumb -7.59136 2.14312
rfemur -15.8483 -3.83743 13.9037
rtibia 47.0269
rfoot -39.0563 -8.1174
rtoes -31.4299
lfemur -37.1865 -0.890988 6.09708
ltibia 44.8502
lfoot -24.499 -2.67293
ltoes -41.6843
418
root 9.01328 14.1898 34.4821 -355.512 -131.245 -353.352
lowerback 7.48926 1.39312 10.7262
upperback -4.70714 3.07445 1.24934
thorax -8.811 0.826176 -5.11184
lowerneck 20.2643 -6.9527 -30.8964
upperneck 0.239353 -20.2486 41.2134
head 4.91247 -13.2267 21.8617
rclavicle 1.17457e-013 2.46493e-014
rhumerus -44.3004 -16.744 -71.921
rradius 42.2763
rwrist 11.7225
rhand -16.7295 -22.463
rfingers 7.12502
rthumb 9.49633 -52.229
lclavicle 1.17457e-013 2.46493e-014
lhumerus -46.6981 3.32133 85.4373
lradius 87.4332
lwrist 51.8949
lhand -35.7199 -25.7742
lfingers 7.12502
lthumb -8.83956 4.02063
rfemur -15.2966 -3.34084 13.2312
rtibia 45.6547
rfoot -38.3355 -8.58708
rtoes -31.367
lfemur -37.7767 -0.278351 5.17112
ltibia 45.4388
lfoot -24.5055 -3.23503
ltoes -42.4714
419
root 8.85824 14.2353 34.5674 -354.853 -131.288 -353.832
lowerback 7.09379 1.16447 10.7773
upperback -4.84788 2.72395 1.2812
thorax -8.79241 0.64647 -5.0451
lowerneck 20.3635 -7.08921 -30.9597
upperneck -0.141439 -20.4122 41.227
head 4.87256 -13.3138 21.819
rclavicle -1.16861e-013 -9.54166e-015
rhumerus -46.5697 -19.6011 -68.0992
rradius 40.6395
rwrist 9.95018
rhand -16.8607 -24.5805
rfingers 7.12502
rthumb 9.36971 -54.3523
lclavicle -1.16861e-013 -9.54166e-015
lhumerus -47.0181 2.03985 86.5756
lradius 85.153
lwrist 52.7389
lhand -37.074 -24.0008
lfingers 7.12502
lthumb -10.146 5.73454
rfemur -14.6078 -2.8454 12.3311
rtibia 44.107
rfoot -37.5359 -9.00748
rtoes -31.1804
lfemur -38.0937 0.239179 4.00869
ltibia 45.7039
lfoot -24.5226 -3.89122
ltoes -42.9059
420
root 8.69851 14.2881 34.6492 -354.075 -131.388 -354.521
lowerback 6.72591 0.955869 10.6722
upperback -4.97786 2.38676 1.29759
thorax -8.7781 0.48319 -4.91313
lowerneck 20.4107 -7.23843 -31.0225
upperneck -0.610459 -20.5545 41.2812
head 4.81685 -13.3874 21.7967
rclavicle 1.04561e-013 1.19271e-014
rhumerus -49.0251 -21.5516 -64.3484
rradius 39.4261
rwrist 6.8379
rhand -17.2058 -26.5978
rfingers 7.12502
rthumb 9.03675 -56.3842
lclavicle 1.04561e-013 1.19271e-014
lhumerus -47.4968 0.714898 87.8576
lradius 83.4154
lwrist 53.5215
lhand -38.4107 -22.4831
lfingers 7.12502
lthumb -11.4354 7.18503
rfemur -13.8013 -2.33168 11.2857
rtibia 42.4239
rfoot -36.6511 -9.37968
rtoes -30.8539
lfemur -38.1655 0.727169 2.6685
ltibia 45.72
lfoot -24.6142 -4.57854
ltoes -43.0933
421
root 8.53611 14.3446 34.7277 -353.281 -131.548 -355.28
lowerback 6.40258 0.783164 10.5052
upperback -5.11112 2.09755 1.29612
thorax -8.78443 0.345473 -4.77543
lowerneck 20.4572 -7.40708 -31.0285
upperneck -1.17452 -20.6959 41.392
head 4.73773 -13.4659 21.7932
rclavicle 3.09359e-014 -1.90833e-014
rhumerus -51.5224 -22.6313 -60.8297
rradius 38.5154
rwrist 2.47608
rhand -17.8758 -28.2816
rfingers 7.12502
rthumb 8.39017 -58.0949
lclavicle 3.09359e-014 -1.90833e-014
lhumerus -48.1668 -0.659824 89.2454
lradius 82.2878
lwrist 54.3646
lhand -39.5821 -21.2987
lfingers 7.12502
lthumb -12.5649 8.30349
rfemur -12.9252 -1.78162 10.209
rtibia 40.6705
rfoot -35.6967 -9.73051
rtoes -30.3735
lfemur -38.0481 1.23367 1.25988
ltibia 45.5642
lfoot -24.7544 -5.27614
ltoes -43.019
422
root 8.37287 14.4021 34.8033 -352.501 -131.801 -356.071
lowerback 6.14502 0.645498 10.2758
upperback -5.25048 1.85894 1.29178
thorax -8.82694 0.234218 -4.61547
lowerneck 20.5124 -7.58131 -30.9977
upperneck -1.81616 -20.8266 41.5481
head 4.63477 -13.5452 21.8125
rclavicle 5.08889e-014 -1.66979e-014
rhumerus -53.8966 -22.876 -57.6683
rradius 37.7824
rwrist -2.86671
rhand -18.7183 -29.5086
rfingers 7.12502
rthumb 7.57706 -59.3529
lclavicle 5.08889e-014 -1.66979e-014
lhumerus -49.0268 -1.95908 90.6815
lradius 81.7712
lwrist 55.3974
lhand -40.339 -20.4865
lfingers 7.12502
lthumb -13.2945 9.06944
rfemur -12.0394 -1.16411 9.13095
rtibia 38.931
rfoot -34.6831 -10.0674
rtoes -29.7023
lfemur -37.7603 1.7915 -0.177936
ltibia 45.2838
lfoot -24.925 -5.92139
ltoes -42.853
423
root 8.21034 14.459 34.8764 -351.743 -132.18 -356.86
lowerback 5.9482 0.552385 9.99502
upperback -5.39823 1.68393 1.28616
thorax -8.90316 0.155312 -4.43841
lowerneck 20.5422 -7.76696 -30.9414
upperneck -2.49787 -20.9578 41.7347
head 4.52939 -13.6272 21.8414
rclavicle 3.13334e-014 -3.97569e-015
rhumerus -56.036 -22.4339 -54.9068
rradius 37.0893
rwrist -8.75958
rhand -19.6159 -30.1274
rfingers 7.12502
rthumb 6.71061 -60.0011
lclavicle 3.13334e-014 -3.97569e-015
lhumerus -50.0384 -3.09803 92.1028
lradius 81.816
lwrist 56.6125
lhand -40.5301 -20.1048
lfingers 7.12502
lthumb -13.4787 9.43905
rfemur -11.2282 -0.43516 8.08386
rtibia 37.2933
rfoot -33.6131 -10.4297
rtoes -28.8075
lfemur -37.3398 2.41593 -1.60412
ltibia 44.9069
lfoot -25.1022 -6.52566
ltoes -42.6048
424
root 8.05029 14.515 34.9462 -350.977 -132.727 -357.648
lowerback 5.79237 0.512509 9.6391
upperback -5.56309 1.579 1.27898
thorax -9.01074 0.113415 -4.23113
lowerneck 20.5425 -7.95528 -30.8786
upperneck -3.20092 -21.0809 41.9371
head 4.42371 -13.7057 21.8775
rclavicle 5.41191e-014 4.05521e-014
rhumerus -57.9027 -21.438 -52.544
rradius 36.3549
rwrist -14.7028
rhand -20.298 -30.1403
rfingers 7.12502
rthumb 6.05216 -60.0338
lclavicle 5.41191e-014 4.05521e-014
lhumerus -51.1635 -4.02088 93.4415
lradius 82.3255
lwrist 57.92
lhand -40.0481 -20.1132
lfingers 7.12502
lthumb -13.0142 9.46087
rfemur -10.5855 0.451659 7.07201
rtibia 35.8387
rfoot -32.4739 -10.8905
rtoes -27.6987
lfemur -36.8241 3.12302 -3.00681
ltibia 44.4424
lfoot -25.2534 -7.0627
ltoes -42.3329
425
root 7.89376 14.5704 35.0122 -350.162 -133.483 -358.443
lowerback 5.63192 0.540913 9.18176
upperback -5.74908 1.55539 1.26636
thorax -9.12648 0.116759 -3.98346
lowerneck 20.509 -8.13696 -30.816
upperneck -3.90325 -21.1844 42.141
head 4.31747 -13.773 21.9168
rclavicle 7.14382e-014 2.46493e-014
rhumerus -59.5079 -20.0268 -50.5458
rradius 35.5554
rwrist -20.106
rhand -20.5004 -29.8052
rfingers 7.12502
rthumb 5.85667 -59.7042
lclavicle 7.14382e-014 2.46493e-014
lhumerus -52.3494 -4.72917 94.672
lradius 83.1678
lwrist 59.1248
lhand -38.9693 -20.4029
lfingers 7.12502
lthumb -11.974 9.23463
rfemur -10.2004 1.51548 6.08379
rtibia 34.6292
rfoot -31.256 -11.5042
rtoes -26.4171
lfemur -36.2527 3.9289 -4.39164
ltibia 43.8953
lfoot -25.3589 -7.49513
ltoes -42.1006
